<svg width="44" height="44" viewBox="0 0 44 44" fill="none" xmlns="http://www.w3.org/2000/svg">
<path fill-rule="evenodd" clip-rule="evenodd" d="M22 44C34.1503 44 44 34.1503 44 22C44 9.84973 34.1503 0 22 0C9.84973 0 0 9.84973 0 22C0 34.1503 9.84973 44 22 44Z" fill="#C7E1FF"/>
<mask id="mask0_235_4822" style="mask-type:alpha" maskUnits="userSpaceOnUse" x="-1" y="-1" width="46" height="46">
<path fill-rule="evenodd" clip-rule="evenodd" d="M22 44C34.1503 44 44 34.1503 44 22C44 9.84973 34.1503 0 22 0C9.84973 0 0 9.84973 0 22C0 34.1503 9.84973 44 22 44Z" fill="white" stroke="white"/>
</mask>
<g mask="url(#mask0_235_4822)">
<path d="M17.1513 33.8013L11.3457 36.9235C11.005 37.1067 8.31198 38.1997 8.0271 38.4451C13.4143 42.5017 18.169 43.4056 22.9429 43.4056C27.6817 43.4056 32.8951 40.8255 36.2703 38.0501C35.959 37.7909 34.7487 37.1486 34.3742 36.9648L28.1574 33.9005C27.3542 33.5045 26.8468 32.6952 26.8468 31.8099V29.4051C27.0216 29.2089 27.2213 28.957 27.435 28.6594C28.2823 27.4795 28.9233 26.1815 29.3675 24.8199C30.1648 24.5774 30.7522 23.8513 30.7522 22.9884V20.4214C30.7522 19.8568 30.4974 19.3522 30.1017 18.999V15.2882C30.1017 15.2882 30.8748 9.51367 22.9429 9.51367C15.011 9.51367 15.7842 15.2882 15.7842 15.2882V18.999C15.3877 19.3522 15.1336 19.8568 15.1336 20.4214V22.9884C15.1336 23.6645 15.4941 24.2596 16.0338 24.6034C16.6843 27.3955 18.3878 29.4051 18.3878 29.4051V31.7505C18.387 32.6047 17.9127 33.3916 17.1513 33.8013Z" fill="white"/>
</g>
</svg>
