<svg width="211" height="51" viewBox="0 0 211 51" fill="none" xmlns="http://www.w3.org/2000/svg">
<g opacity="0.8">
<path fill-rule="evenodd" clip-rule="evenodd" d="M41.9673 2.91309H64.6847C68.4486 2.91309 71.4999 6.28555 71.4999 10.4457V35.5544C71.4999 39.7145 68.4486 43.087 64.6847 43.087H41.9673C38.2034 43.087 35.1521 39.7145 35.1521 35.5544V10.4457C35.1521 6.28555 38.2034 2.91309 41.9673 2.91309Z" fill="#0D6EFD" fill-opacity="0.2"/>
<path fill-rule="evenodd" clip-rule="evenodd" d="M35.6305 2.91309H59.5435C63.5055 2.91309 66.7174 6.28555 66.7174 10.4457V35.5544C66.7174 39.7145 63.5055 43.087 59.5435 43.087H35.6305C31.6684 43.087 28.4565 39.7145 28.4565 35.5544V10.4457C28.4565 6.28555 31.6684 2.91309 35.6305 2.91309Z" fill="#0D6EFD"/>
<g opacity="0.7">
<path opacity="0.3" fill-rule="evenodd" clip-rule="evenodd" d="M42.7902 19.356H41.8097C41.7592 19.356 41.6842 19.4263 41.6813 19.4727L40.959 31.1474L54.4549 31.1449L53.7254 19.4727C53.7226 19.428 53.6458 19.356 53.597 19.356H52.6165V21.3212C52.6165 21.8639 52.1765 22.3038 51.6338 22.3038C51.0912 22.3038 50.6512 21.8639 50.6512 21.3212V19.356H44.7555V21.3212C44.7555 21.8639 44.3156 22.3038 43.7729 22.3038C43.2302 22.3038 42.7902 21.8639 42.7902 21.3212V19.356Z" fill="white"/>
<path fill-rule="evenodd" clip-rule="evenodd" d="M47.7033 12.478C50.4153 12.478 52.6164 14.6794 52.6164 17.3888L53.5969 17.3911C54.6835 17.3911 55.6192 18.2701 55.6867 19.3505L56.4244 31.1537C56.4921 32.2358 55.6698 33.1131 54.5865 33.1131H40.8201C39.7374 33.1131 38.9146 32.2341 38.9821 31.1537L39.7198 19.3505C39.7875 18.2684 40.7213 17.3911 41.8096 17.3911H42.7902C42.7902 14.6779 44.993 12.478 47.7033 12.478ZM50.6511 17.3912C50.6511 15.7648 49.3299 14.4434 47.7033 14.4434C46.0778 14.4434 44.7554 15.764 44.7554 17.3889L50.6511 17.3912ZM42.7902 19.3563H41.8096C41.7591 19.3563 41.6842 19.4266 41.6813 19.4731L40.9589 31.1478L54.4548 31.1452L53.7253 19.4731C53.7225 19.4284 53.6457 19.3563 53.5969 19.3563H52.6164V21.3216C52.6164 21.8643 52.1765 22.3042 51.6338 22.3042C51.0911 22.3042 50.6512 21.8643 50.6512 21.3216V19.3563H44.7554V21.3216C44.7554 21.8643 44.3155 22.3042 43.7728 22.3042C43.2301 22.3042 42.7902 21.8643 42.7902 21.3216V19.3563Z" fill="white"/>
</g>
</g>
<g style="mix-blend-mode:darken">
<path d="M76.7955 0.727272H81.9545L88.8636 17.5909H89.1364L96.0455 0.727272H101.204V24H97.1591V8.01136H96.9432L90.5114 23.9318H87.4886L81.0568 7.97727H80.8409V24H76.7955V0.727272ZM113.227 24.3409C111.523 24.3409 110.046 23.9659 108.796 23.2159C107.546 22.4659 106.576 21.4167 105.886 20.0682C105.204 18.7197 104.864 17.1439 104.864 15.3409C104.864 13.5379 105.204 11.9583 105.886 10.6023C106.576 9.24621 107.546 8.19318 108.796 7.44318C110.046 6.69318 111.523 6.31818 113.227 6.31818C114.932 6.31818 116.409 6.69318 117.659 7.44318C118.909 8.19318 119.875 9.24621 120.557 10.6023C121.246 11.9583 121.591 13.5379 121.591 15.3409C121.591 17.1439 121.246 18.7197 120.557 20.0682C119.875 21.4167 118.909 22.4659 117.659 23.2159C116.409 23.9659 114.932 24.3409 113.227 24.3409ZM113.25 21.0455C114.174 21.0455 114.947 20.7917 115.568 20.2841C116.189 19.7689 116.651 19.0795 116.954 18.2159C117.265 17.3523 117.421 16.3902 117.421 15.3295C117.421 14.2614 117.265 13.2955 116.954 12.4318C116.651 11.5606 116.189 10.8674 115.568 10.3523C114.947 9.83712 114.174 9.57955 113.25 9.57955C112.303 9.57955 111.515 9.83712 110.886 10.3523C110.265 10.8674 109.799 11.5606 109.489 12.4318C109.186 13.2955 109.034 14.2614 109.034 15.3295C109.034 16.3902 109.186 17.3523 109.489 18.2159C109.799 19.0795 110.265 19.7689 110.886 20.2841C111.515 20.7917 112.303 21.0455 113.25 21.0455ZM139.071 0.0909081L140.503 2.75C139.995 3.18939 139.427 3.50757 138.798 3.70454C138.17 3.90151 137.431 4.0303 136.582 4.09091C135.741 4.14394 134.741 4.18182 133.582 4.20454C132.279 4.23485 131.215 4.48106 130.389 4.94318C129.563 5.4053 128.931 6.10606 128.491 7.04545C128.052 7.97727 127.764 9.16667 127.628 10.6136H127.821C128.366 9.54545 129.132 8.73106 130.116 8.17045C131.101 7.60985 132.257 7.32954 133.582 7.32954C135.029 7.32954 136.306 7.6553 137.412 8.30682C138.526 8.95076 139.393 9.88636 140.014 11.1136C140.643 12.3409 140.957 13.8258 140.957 15.5682C140.957 17.3636 140.62 18.9205 139.946 20.2386C139.272 21.5492 138.313 22.5606 137.071 23.2727C135.836 23.9848 134.37 24.3409 132.673 24.3409C130.984 24.3409 129.514 23.9735 128.264 23.2386C127.022 22.4962 126.06 21.4015 125.378 19.9545C124.704 18.5 124.367 16.7083 124.367 14.5795V13.0114C124.367 8.9053 125.132 5.84091 126.662 3.81818C128.192 1.79545 130.461 0.765151 133.469 0.727272C134.363 0.71212 135.162 0.708332 135.866 0.715908C136.579 0.723484 137.2 0.689393 137.73 0.613636C138.26 0.537879 138.707 0.363636 139.071 0.0909081ZM132.696 21.0455C133.537 21.0455 134.264 20.8295 134.878 20.3977C135.491 19.9583 135.961 19.3371 136.287 18.5341C136.62 17.7311 136.787 16.7803 136.787 15.6818C136.787 14.5985 136.62 13.678 136.287 12.9205C135.954 12.1553 135.48 11.572 134.866 11.1705C134.253 10.7689 133.522 10.5682 132.673 10.5682C132.037 10.5682 131.465 10.6818 130.957 10.9091C130.45 11.1364 130.018 11.4697 129.662 11.9091C129.306 12.3485 129.033 12.8826 128.844 13.5114C128.654 14.1402 128.552 14.8636 128.537 15.6818C128.537 17.3258 128.908 18.6326 129.651 19.6023C130.393 20.5644 131.408 21.0455 132.696 21.0455ZM148.423 18.4318L155.412 6.54545H159.639V24H155.662V12.1023L148.696 24H144.457V6.54545H148.423V18.4318ZM162.659 24L162.636 20.6136H163.239C163.693 20.6136 164.076 20.5114 164.386 20.3068C164.697 20.1023 164.955 19.7614 165.159 19.2841C165.364 18.7992 165.523 18.1477 165.636 17.3295C165.75 16.5114 165.83 15.4924 165.875 14.2727L166.182 6.54545H178.909V24H174.932V9.92045H169.92L169.648 15.5455C169.58 17 169.417 18.2614 169.159 19.3295C168.909 20.3902 168.553 21.2652 168.091 21.9545C167.636 22.6439 167.064 23.1591 166.375 23.5C165.686 23.8333 164.871 24 163.932 24H162.659ZM115.909 28.5455H119.778L124.96 41.1932H125.165L130.347 28.5455H134.216V46H131.182V34.0085H131.02L126.196 45.9489H123.929L119.105 33.983H118.943V46H115.909V28.5455ZM141.29 46.2642C140.46 46.2642 139.713 46.1165 139.048 45.821C138.389 45.5199 137.866 45.0767 137.48 44.4915C137.099 43.9062 136.909 43.1847 136.909 42.3267C136.909 41.5881 137.045 40.9773 137.318 40.4943C137.591 40.0114 137.963 39.625 138.435 39.3352C138.906 39.0455 139.438 38.8267 140.028 38.679C140.625 38.5256 141.241 38.4148 141.878 38.3466C142.645 38.267 143.267 38.196 143.744 38.1335C144.222 38.0653 144.568 37.9631 144.784 37.8267C145.006 37.6847 145.116 37.4659 145.116 37.1705V37.1193C145.116 36.4773 144.926 35.9801 144.545 35.6278C144.165 35.2756 143.616 35.0994 142.901 35.0994C142.145 35.0994 141.545 35.2642 141.102 35.5938C140.665 35.9233 140.369 36.3125 140.216 36.7614L137.335 36.3523C137.563 35.5568 137.938 34.892 138.46 34.358C138.983 33.8182 139.622 33.4148 140.378 33.1477C141.134 32.875 141.969 32.7386 142.884 32.7386C143.514 32.7386 144.142 32.8125 144.767 32.9602C145.392 33.108 145.963 33.3523 146.48 33.6932C146.997 34.0284 147.412 34.4858 147.724 35.0653C148.043 35.6449 148.202 36.3693 148.202 37.2386V46H145.236V44.2017H145.134C144.946 44.5653 144.682 44.9062 144.341 45.2244C144.006 45.5369 143.582 45.7898 143.071 45.983C142.565 46.1705 141.972 46.2642 141.29 46.2642ZM142.091 43.9972C142.71 43.9972 143.247 43.875 143.702 43.6307C144.156 43.3807 144.506 43.0511 144.75 42.642C145 42.233 145.125 41.7869 145.125 41.304V39.7614C145.028 39.8409 144.864 39.9148 144.631 39.983C144.403 40.0511 144.148 40.1108 143.864 40.1619C143.58 40.2131 143.298 40.2585 143.02 40.2983C142.741 40.3381 142.5 40.3722 142.295 40.4006C141.835 40.4631 141.423 40.5653 141.06 40.7074C140.696 40.8494 140.409 41.0483 140.199 41.304C139.989 41.554 139.884 41.8778 139.884 42.2756C139.884 42.8438 140.091 43.2727 140.506 43.5625C140.92 43.8523 141.449 43.9972 142.091 43.9972ZM151.304 50.9091V32.9091H154.338V35.0739H154.517C154.676 34.7557 154.901 34.4176 155.19 34.0597C155.48 33.696 155.872 33.3864 156.366 33.1307C156.861 32.8693 157.491 32.7386 158.259 32.7386C159.27 32.7386 160.182 32.9972 160.994 33.5142C161.813 34.0256 162.46 34.7841 162.938 35.7898C163.42 36.7898 163.662 38.017 163.662 39.4716C163.662 40.9091 163.426 42.1307 162.955 43.1364C162.483 44.142 161.841 44.9091 161.028 45.4375C160.216 45.9659 159.295 46.2301 158.267 46.2301C157.517 46.2301 156.895 46.1051 156.401 45.8551C155.906 45.6051 155.509 45.304 155.207 44.9517C154.912 44.5937 154.682 44.2557 154.517 43.9375H154.389V50.9091H151.304ZM154.33 39.4545C154.33 40.3011 154.449 41.0426 154.688 41.679C154.932 42.3153 155.281 42.8125 155.736 43.1705C156.196 43.5227 156.753 43.6989 157.406 43.6989C158.088 43.6989 158.659 43.517 159.119 43.1534C159.58 42.7841 159.926 42.2812 160.159 41.6449C160.398 41.0028 160.517 40.2727 160.517 39.4545C160.517 38.642 160.401 37.9205 160.168 37.2898C159.935 36.6591 159.588 36.1648 159.128 35.8068C158.668 35.4489 158.094 35.2699 157.406 35.2699C156.747 35.2699 156.188 35.4432 155.727 35.7898C155.267 36.1364 154.918 36.6222 154.679 37.2472C154.446 37.8722 154.33 38.608 154.33 39.4545ZM166.304 46V32.9091H169.389V38.1932H170.514L174.452 32.9091H178.168L173.318 39.3352L178.219 46H174.486L170.898 41.0653H169.389V46H166.304ZM185.224 46.2557C183.912 46.2557 182.778 45.983 181.824 45.4375C180.875 44.8864 180.145 44.108 179.634 43.1023C179.122 42.0909 178.866 40.9006 178.866 39.5312C178.866 38.1847 179.122 37.0028 179.634 35.9858C180.151 34.9631 180.872 34.1676 181.798 33.5994C182.724 33.0256 183.812 32.7386 185.062 32.7386C185.869 32.7386 186.631 32.8693 187.347 33.1307C188.068 33.3864 188.705 33.7841 189.256 34.3239C189.813 34.8636 190.25 35.5511 190.568 36.3864C190.886 37.2159 191.045 38.2045 191.045 39.3523V40.2983H180.315V38.2188H188.088C188.082 37.6278 187.955 37.1023 187.705 36.642C187.455 36.1761 187.105 35.8097 186.656 35.5426C186.213 35.2756 185.696 35.142 185.105 35.142C184.474 35.142 183.92 35.2955 183.443 35.6023C182.966 35.9034 182.594 36.3011 182.327 36.7955C182.065 37.2841 181.932 37.821 181.926 38.4062V40.2216C181.926 40.983 182.065 41.6364 182.344 42.1818C182.622 42.7216 183.011 43.1364 183.511 43.4261C184.011 43.7102 184.597 43.8523 185.267 43.8523C185.716 43.8523 186.122 43.7898 186.486 43.6648C186.849 43.5341 187.165 43.3438 187.432 43.0938C187.699 42.8438 187.901 42.5341 188.037 42.1648L190.918 42.4886C190.736 43.25 190.389 43.9148 189.878 44.483C189.372 45.0455 188.724 45.483 187.935 45.7955C187.145 46.1023 186.241 46.2557 185.224 46.2557ZM192.565 35.4403V32.9091H204.019V35.4403H199.783V46H196.8V35.4403H192.565Z" fill="#8CB7F5"/>
</g>
</svg>
