<svg width="299" height="59" viewBox="0 0 299 59" fill="none" xmlns="http://www.w3.org/2000/svg">
<g opacity="0.8">
<path fill-rule="evenodd" clip-rule="evenodd" d="M14.4673 2.91309H37.1847C40.9486 2.91309 43.9999 6.28555 43.9999 10.4457V35.5544C43.9999 39.7145 40.9486 43.087 37.1847 43.087H14.4673C10.7034 43.087 7.6521 39.7145 7.6521 35.5544L7.6521 10.4457C7.6521 6.28555 10.7034 2.91309 14.4673 2.91309Z" fill="#0D6EFD" fill-opacity="0.2"/>
<path fill-rule="evenodd" clip-rule="evenodd" d="M8.13046 2.91309H32.0435C36.0055 2.91309 39.2174 6.28555 39.2174 10.4457V35.5544C39.2174 39.7145 36.0055 43.087 32.0435 43.087H8.13046C4.16841 43.087 0.956542 39.7145 0.956543 35.5544L0.956543 10.4457C0.956543 6.28555 4.16841 2.91309 8.13046 2.91309Z" fill="#0D6EFD"/>
<g opacity="0.7">
<path opacity="0.3" fill-rule="evenodd" clip-rule="evenodd" d="M15.2902 19.356H14.3097C14.2592 19.356 14.1842 19.4263 14.1813 19.4727L13.459 31.1474L26.9549 31.1449L26.2254 19.4727C26.2226 19.428 26.1458 19.356 26.097 19.356H25.1165V21.3212C25.1165 21.8639 24.6765 22.3038 24.1338 22.3038C23.5912 22.3038 23.1512 21.8639 23.1512 21.3212V19.356H17.2555V21.3212C17.2555 21.8639 16.8156 22.3038 16.2729 22.3038C15.7302 22.3038 15.2902 21.8639 15.2902 21.3212V19.356Z" fill="white"/>
<path fill-rule="evenodd" clip-rule="evenodd" d="M20.2033 12.478C22.9153 12.478 25.1164 14.6794 25.1164 17.3888L26.0969 17.3911C27.1835 17.3911 28.1192 18.2701 28.1867 19.3505L28.9244 31.1537C28.9921 32.2358 28.1698 33.1131 27.0865 33.1131H13.3201C12.2374 33.1131 11.4146 32.2341 11.4821 31.1537L12.2198 19.3505C12.2875 18.2684 13.2213 17.3911 14.3096 17.3911H15.2902C15.2902 14.6779 17.493 12.478 20.2033 12.478ZM23.1511 17.3912C23.1511 15.7648 21.8299 14.4434 20.2033 14.4434C18.5778 14.4434 17.2554 15.764 17.2554 17.3889L23.1511 17.3912ZM15.2902 19.3563H14.3096C14.2591 19.3563 14.1842 19.4266 14.1813 19.4731L13.4589 31.1478L26.9548 31.1452L26.2253 19.4731C26.2225 19.4284 26.1457 19.3563 26.0969 19.3563H25.1164V21.3216C25.1164 21.8643 24.6765 22.3042 24.1338 22.3042C23.5911 22.3042 23.1512 21.8643 23.1512 21.3216V19.3563H17.2554V21.3216C17.2554 21.8643 16.8155 22.3042 16.2728 22.3042C15.7301 22.3042 15.2902 21.8643 15.2902 21.3216V19.3563Z" fill="white"/>
</g>
</g>
<g filter="url(#filter0_d_338_5257)">
<path d="M49.2955 0.727272H54.4545L61.3636 17.5909H61.6364L68.5455 0.727272H73.7045V24H69.6591V8.01136H69.4432L63.0114 23.9318H59.9886L53.5568 7.97727H53.3409V24H49.2955V0.727272ZM85.7273 24.3409C84.0227 24.3409 82.5455 23.9659 81.2955 23.2159C80.0455 22.4659 79.0758 21.4167 78.3864 20.0682C77.7045 18.7197 77.3636 17.1439 77.3636 15.3409C77.3636 13.5379 77.7045 11.9583 78.3864 10.6023C79.0758 9.24621 80.0455 8.19318 81.2955 7.44318C82.5455 6.69318 84.0227 6.31818 85.7273 6.31818C87.4318 6.31818 88.9091 6.69318 90.1591 7.44318C91.4091 8.19318 92.375 9.24621 93.0568 10.6023C93.7462 11.9583 94.0909 13.5379 94.0909 15.3409C94.0909 17.1439 93.7462 18.7197 93.0568 20.0682C92.375 21.4167 91.4091 22.4659 90.1591 23.2159C88.9091 23.9659 87.4318 24.3409 85.7273 24.3409ZM85.75 21.0455C86.6742 21.0455 87.447 20.7917 88.0682 20.2841C88.6894 19.7689 89.1515 19.0795 89.4545 18.2159C89.7652 17.3523 89.9205 16.3902 89.9205 15.3295C89.9205 14.2614 89.7652 13.2955 89.4545 12.4318C89.1515 11.5606 88.6894 10.8674 88.0682 10.3523C87.447 9.83712 86.6742 9.57955 85.75 9.57955C84.803 9.57955 84.0152 9.83712 83.3864 10.3523C82.7652 10.8674 82.2992 11.5606 81.9886 12.4318C81.6856 13.2955 81.5341 14.2614 81.5341 15.3295C81.5341 16.3902 81.6856 17.3523 81.9886 18.2159C82.2992 19.0795 82.7652 19.7689 83.3864 20.2841C84.0152 20.7917 84.803 21.0455 85.75 21.0455ZM111.571 0.0909081L113.003 2.75C112.495 3.18939 111.927 3.50757 111.298 3.70454C110.67 3.90151 109.931 4.0303 109.082 4.09091C108.241 4.14394 107.241 4.18182 106.082 4.20454C104.779 4.23485 103.715 4.48106 102.889 4.94318C102.063 5.4053 101.431 6.10606 100.991 7.04545C100.552 7.97727 100.264 9.16667 100.128 10.6136H100.321C100.866 9.54545 101.632 8.73106 102.616 8.17045C103.601 7.60985 104.757 7.32954 106.082 7.32954C107.529 7.32954 108.806 7.6553 109.912 8.30682C111.026 8.95076 111.893 9.88636 112.514 11.1136C113.143 12.3409 113.457 13.8258 113.457 15.5682C113.457 17.3636 113.12 18.9205 112.446 20.2386C111.772 21.5492 110.813 22.5606 109.571 23.2727C108.336 23.9848 106.87 24.3409 105.173 24.3409C103.484 24.3409 102.014 23.9735 100.764 23.2386C99.5218 22.4962 98.5597 21.4015 97.8778 19.9545C97.2036 18.5 96.8665 16.7083 96.8665 14.5795V13.0114C96.8665 8.9053 97.6316 5.84091 99.1619 3.81818C100.692 1.79545 102.961 0.765151 105.969 0.727272C106.863 0.71212 107.662 0.708332 108.366 0.715908C109.079 0.723484 109.7 0.689393 110.23 0.613636C110.76 0.537879 111.207 0.363636 111.571 0.0909081ZM105.196 21.0455C106.037 21.0455 106.764 20.8295 107.378 20.3977C107.991 19.9583 108.461 19.3371 108.787 18.5341C109.12 17.7311 109.287 16.7803 109.287 15.6818C109.287 14.5985 109.12 13.678 108.787 12.9205C108.454 12.1553 107.98 11.572 107.366 11.1705C106.753 10.7689 106.022 10.5682 105.173 10.5682C104.537 10.5682 103.965 10.6818 103.457 10.9091C102.95 11.1364 102.518 11.4697 102.162 11.9091C101.806 12.3485 101.533 12.8826 101.344 13.5114C101.154 14.1402 101.052 14.8636 101.037 15.6818C101.037 17.3258 101.408 18.6326 102.151 19.6023C102.893 20.5644 103.908 21.0455 105.196 21.0455ZM120.923 18.4318L127.912 6.54545H132.139V24H128.162V12.1023L121.196 24H116.957V6.54545H120.923V18.4318ZM135.159 24L135.136 20.6136H135.739C136.193 20.6136 136.576 20.5114 136.886 20.3068C137.197 20.1023 137.455 19.7614 137.659 19.2841C137.864 18.7992 138.023 18.1477 138.136 17.3295C138.25 16.5114 138.33 15.4924 138.375 14.2727L138.682 6.54545H151.409V24H147.432V9.92045H142.42L142.148 15.5455C142.08 17 141.917 18.2614 141.659 19.3295C141.409 20.3902 141.053 21.2652 140.591 21.9545C140.136 22.6439 139.564 23.1591 138.875 23.5C138.186 23.8333 137.371 24 136.432 24H135.159ZM88.4091 28.5455H92.2784L97.4602 41.1932H97.6648L102.847 28.5455H106.716V46H103.682V34.0085H103.52L98.696 45.9489H96.429L91.6051 33.983H91.4432V46H88.4091V28.5455ZM113.79 46.2642C112.96 46.2642 112.213 46.1165 111.548 45.821C110.889 45.5199 110.366 45.0767 109.98 44.4915C109.599 43.9062 109.409 43.1847 109.409 42.3267C109.409 41.5881 109.545 40.9773 109.818 40.4943C110.091 40.0114 110.463 39.625 110.935 39.3352C111.406 39.0455 111.938 38.8267 112.528 38.679C113.125 38.5256 113.741 38.4148 114.378 38.3466C115.145 38.267 115.767 38.196 116.244 38.1335C116.722 38.0653 117.068 37.9631 117.284 37.8267C117.506 37.6847 117.616 37.4659 117.616 37.1705V37.1193C117.616 36.4773 117.426 35.9801 117.045 35.6278C116.665 35.2756 116.116 35.0994 115.401 35.0994C114.645 35.0994 114.045 35.2642 113.602 35.5938C113.165 35.9233 112.869 36.3125 112.716 36.7614L109.835 36.3523C110.063 35.5568 110.438 34.892 110.96 34.358C111.483 33.8182 112.122 33.4148 112.878 33.1477C113.634 32.875 114.469 32.7386 115.384 32.7386C116.014 32.7386 116.642 32.8125 117.267 32.9602C117.892 33.108 118.463 33.3523 118.98 33.6932C119.497 34.0284 119.912 34.4858 120.224 35.0653C120.543 35.6449 120.702 36.3693 120.702 37.2386V46H117.736V44.2017H117.634C117.446 44.5653 117.182 44.9062 116.841 45.2244C116.506 45.5369 116.082 45.7898 115.571 45.983C115.065 46.1705 114.472 46.2642 113.79 46.2642ZM114.591 43.9972C115.21 43.9972 115.747 43.875 116.202 43.6307C116.656 43.3807 117.006 43.0511 117.25 42.642C117.5 42.233 117.625 41.7869 117.625 41.304V39.7614C117.528 39.8409 117.364 39.9148 117.131 39.983C116.903 40.0511 116.648 40.1108 116.364 40.1619C116.08 40.2131 115.798 40.2585 115.52 40.2983C115.241 40.3381 115 40.3722 114.795 40.4006C114.335 40.4631 113.923 40.5653 113.56 40.7074C113.196 40.8494 112.909 41.0483 112.699 41.304C112.489 41.554 112.384 41.8778 112.384 42.2756C112.384 42.8438 112.591 43.2727 113.006 43.5625C113.42 43.8523 113.949 43.9972 114.591 43.9972ZM123.804 50.9091V32.9091H126.838V35.0739H127.017C127.176 34.7557 127.401 34.4176 127.69 34.0597C127.98 33.696 128.372 33.3864 128.866 33.1307C129.361 32.8693 129.991 32.7386 130.759 32.7386C131.77 32.7386 132.682 32.9972 133.494 33.5142C134.313 34.0256 134.96 34.7841 135.438 35.7898C135.92 36.7898 136.162 38.017 136.162 39.4716C136.162 40.9091 135.926 42.1307 135.455 43.1364C134.983 44.142 134.341 44.9091 133.528 45.4375C132.716 45.9659 131.795 46.2301 130.767 46.2301C130.017 46.2301 129.395 46.1051 128.901 45.8551C128.406 45.6051 128.009 45.304 127.707 44.9517C127.412 44.5937 127.182 44.2557 127.017 43.9375H126.889V50.9091H123.804ZM126.83 39.4545C126.83 40.3011 126.949 41.0426 127.188 41.679C127.432 42.3153 127.781 42.8125 128.236 43.1705C128.696 43.5227 129.253 43.6989 129.906 43.6989C130.588 43.6989 131.159 43.517 131.619 43.1534C132.08 42.7841 132.426 42.2812 132.659 41.6449C132.898 41.0028 133.017 40.2727 133.017 39.4545C133.017 38.642 132.901 37.9205 132.668 37.2898C132.435 36.6591 132.088 36.1648 131.628 35.8068C131.168 35.4489 130.594 35.2699 129.906 35.2699C129.247 35.2699 128.688 35.4432 128.227 35.7898C127.767 36.1364 127.418 36.6222 127.179 37.2472C126.946 37.8722 126.83 38.608 126.83 39.4545ZM138.804 46V32.9091H141.889V38.1932H143.014L146.952 32.9091H150.668L145.818 39.3352L150.719 46H146.986L143.398 41.0653H141.889V46H138.804ZM157.724 46.2557C156.412 46.2557 155.278 45.983 154.324 45.4375C153.375 44.8864 152.645 44.108 152.134 43.1023C151.622 42.0909 151.366 40.9006 151.366 39.5312C151.366 38.1847 151.622 37.0028 152.134 35.9858C152.651 34.9631 153.372 34.1676 154.298 33.5994C155.224 33.0256 156.312 32.7386 157.562 32.7386C158.369 32.7386 159.131 32.8693 159.847 33.1307C160.568 33.3864 161.205 33.7841 161.756 34.3239C162.313 34.8636 162.75 35.5511 163.068 36.3864C163.386 37.2159 163.545 38.2045 163.545 39.3523V40.2983H152.815V38.2188H160.588C160.582 37.6278 160.455 37.1023 160.205 36.642C159.955 36.1761 159.605 35.8097 159.156 35.5426C158.713 35.2756 158.196 35.142 157.605 35.142C156.974 35.142 156.42 35.2955 155.943 35.6023C155.466 35.9034 155.094 36.3011 154.827 36.7955C154.565 37.2841 154.432 37.821 154.426 38.4062V40.2216C154.426 40.983 154.565 41.6364 154.844 42.1818C155.122 42.7216 155.511 43.1364 156.011 43.4261C156.511 43.7102 157.097 43.8523 157.767 43.8523C158.216 43.8523 158.622 43.7898 158.986 43.6648C159.349 43.5341 159.665 43.3438 159.932 43.0938C160.199 42.8438 160.401 42.5341 160.537 42.1648L163.418 42.4886C163.236 43.25 162.889 43.9148 162.378 44.483C161.872 45.0455 161.224 45.483 160.435 45.7955C159.645 46.1023 158.741 46.2557 157.724 46.2557ZM165.065 35.4403V32.9091H176.519V35.4403H172.283V46H169.3V35.4403H165.065Z" fill="#8CB7F5"/>
</g>
<defs>
<filter id="filter0_d_338_5257" x="45.2954" y="0.0908203" width="135.224" height="58.8184" filterUnits="userSpaceOnUse" color-interpolation-filters="sRGB">
<feFlood flood-opacity="0" result="BackgroundImageFix"/>
<feColorMatrix in="SourceAlpha" type="matrix" values="0 0 0 0 0 0 0 0 0 0 0 0 0 0 0 0 0 0 127 0" result="hardAlpha"/>
<feOffset dy="4"/>
<feGaussianBlur stdDeviation="2"/>
<feComposite in2="hardAlpha" operator="out"/>
<feColorMatrix type="matrix" values="0 0 0 0 0 0 0 0 0 0 0 0 0 0 0 0 0 0 0.25 0"/>
<feBlend mode="normal" in2="BackgroundImageFix" result="effect1_dropShadow_338_5257"/>
<feBlend mode="normal" in="SourceGraphic" in2="effect1_dropShadow_338_5257" result="shape"/>
</filter>
</defs>
</svg>
